<svg version="1.2" xmlns="http://www.w3.org/2000/svg" viewBox="0 0 2250 3751" width="2250" height="3751">
	<title>bg-svg</title>
	<style>
		.s0 { fill: #ffffff } 
		.s1 { fill: #f4f4f4 } 
		.s2 { fill: #f1f1f1 } 
	</style>
	<path id="Layer" class="s0" d="m-225-374h2700v4500h-2700z"/>
	<path id="Layer" class="s0" d="m-225-374h2700v4500h-2700z"/>
	<path id="Layer" class="s1" d="m-225-374h2700v4500h-2700z"/>
	<path id="Layer" fill-rule="evenodd" class="s2" d="m-835.8 1479.5c-18.6 42.2-35.7 85.1-51.3 128.8 80.5 39.5 138.9 111.4 210.7 162.8 23.6-55.4 46.9-107 68.9-154.7-73.8-49.7-149.3-97.2-228.3-136.9zm357.7-493.4c4.5-10.4 19.9-14.9 29.8-12.1 55.2 15.8 102.1 44.2 148.6 75.3 60.2-79.8 125.6-160 181-226-81.4-38.9-159.4-88.2-228.9-146.7-116.9 178.3-242.4 353.1-350.4 537.1 26.7 13 53.8 25.3 80.9 37.7 49.4-86.9 100.1-173.1 139-265.3zm37.1 45.9c-37 83.2-83.5 161.8-128.8 240.9 32.8 15.1 65.4 30.5 97.1 47.3 25.5-60.7 79.1-143 141.7-228.7-34.8-23.4-70.2-45-110-59.5zm-239.9 457.9c-2 5-5.1 8.6-8.6 11.4 35.2 21.5 70 44 104.3 67.1 38.1-81.5 70.9-149.1 93.3-201-33.3-18.4-67.8-35.1-102.5-51.1-31.6 56.4-61.7 113.7-86.5 173.6zm-50.8-14c25.8-62.6 57.2-122.3 90.2-181.3-27.3-12.3-54.6-24.7-81.5-37.5-32.4 57.1-63 115.2-91 174.6 27.8 14 55.2 28.9 82.2 44.5 0-0.1 0-0.2 0.1-0.3zm-247.7 450c-13 142.2-50.4 280.3-69.9 421.5 54.8 16.8 108.8 35.7 163.6 52.5 33.6-147.8 77-286.3 123.2-412.4-71.4-23-144-43.2-216.9-61.6zm-363.1 1708.5c2.7 62.7 4.8 99.1 4.8 99.1l102 107.8c-6-61.2-9.9-122.6-12.7-184.2-31.2-9-62.6-16.7-94.1-22.7zm91.9-287.1c5.9-235.8 27.5-471.8 51.3-703.4-45.9-3.8-91.9-7.5-137.7-12.3-15.8 235.4-17.4 484.1-14.4 685.5 33.6 10.2 67.1 20.2 100.8 30.2zm-1.1 54.3c-32.9-9.7-65.9-19.4-98.8-29.2 1.6 80.9 3.8 152.4 5.9 210 31.6 5.7 63 13.1 94.2 21.7-2-67.4-2.3-134.9-1.3-202.5zm56.2 272c3.8 77.1 10 154.1 19.1 230.5l169.8 179.4c0 0 0-131.4 5.5-334.6-64-27.1-128.9-53.5-194.4-75.3zm59.6-128.3c3.6-34.9 6.9-70 12-104.8-25.2-7.9-50.5-15.8-75.8-23.3-0.8 67.6-0.3 135.3 2.1 202.7 16.5 5.2 33 10.8 49.4 16.6 9.5-28.1 9.2-62.2 12.3-91.2zm62.5-88.5c-5.1 36.4-8.1 73.2-12 109.7-3.1 27.9-3.1 61.5-13.4 88.2 33.3 12.7 66.4 26 99.3 39.7 1.9-64.5 4.4-134.9 7.5-209.6-26.9-9.8-54.1-19.1-81.4-28zm83.8-26.6c9.8-213.8 25.1-458.5 49.2-699.5 1.8-18.2 3.9-36.2 6.1-54.2-70-13.9-141.2-21.7-212.7-28.1-24.2 234.9-46.3 474.8-51.8 714.4 70.3 21.1 140.2 42.9 209.2 67.4zm62-804.1c4.3-29.7 9-59.1 14.1-88.2-9.6-2.7-19.1-5.2-28-7.5-63.2-16.1-128.5-24.4-193.2-31.8-61.9-7.2-126.4-11.1-189.8-19.2-3.3 33.1-6.2 66.8-8.8 100.8 135.7 15.2 272.4 20.5 405.7 45.9zm-143.3-172.3c47.8 6.4 110.7 12.5 167.7 29.3 2.1-10.5 4.1-21.1 6.2-31.6-62.9-19.2-125-41.4-188.2-60-10.1-3-20.7-14-19.3-25.5 19.1-151.8 61.1-300.1 73.4-452.8-48.2-11.5-96.4-22.4-144.7-32.9-16.6 38.4-32.9 76.2-48.4 112.5-45.2 106.2-75.3 261.1-94.8 435.2 82.5 11.4 167.3 14.9 248.1 25.8zm326.7-515.2c15.9-41.7 32-82.1 48-120.7-77.2-56.8-139.6-135.9-230.9-170.2-12.7-4.7-23.3-18-18.4-32.4 18.4-54 39.4-106.6 62.4-158.3-28.4-12.8-57.1-24.4-86.5-34.7-62.3 134.1-126.1 275.3-184.7 408.9 137.9 30.1 275.8 63.9 410.1 107.4zm36.1-1495.7c-74-67-135.4-122.5-199.9-180.9-127.9 195.6-246.7 377.2-361.7 553 34.5 37.7 63 70 92.8 101 32.5 33.8 29 65.1-1.5 98.2-22.5 24.6-49.3 48.5-62.1 78-70.8 161.9-137.9 325.4-209.3 495.5 46.5 13.7 82.2 24.2 117.3 34.5 141.4-433.2 266.8-863.6 624.4-1179.3zm-36.7 747.1c110.3-187.9 238.2-366.4 357.5-548.9-22.9-21.6-44.8-44.2-65.1-68-78.4 86.6-163.7 183.3-204.2 237.2-33.3 44.4-98.4 167-176.7 326.4 28.3 19.6 58 37.1 88.5 53.3zm634.5-635.2c-49.6 41.5-99.7 82.4-146.9 126.8 54.7 39.3 113.4 73 173.4 100.4 58.2-68.3 98.9-113.6 98.9-113.6zm-177.4-160.8c0 0-58 61.9-129.4 140.2 24.4 29.4 51.3 56.9 80.1 82.9 2.2 1.5 4.2 3.3 5.8 5.4 10.3 9.1 20.8 18 31.5 26.7 48.1-45.6 99.3-87.5 150.1-130zm1193 211.9c-54.2 67.8-107.4 136.6-161.4 204.6 26.7 18.6 53.3 37.3 80 56 60.7-70.5 118-144 176.6-216.3-32-14.4-63.8-28.9-95.2-44.3zm129.6 2.2c46.5-56.2 94.1-111.1 145.3-162.8-35.6-26.2-67-43.3-96.2-56.3-49.4 56.1-96 114.7-141.8 171-1.1 1.3-2 2.6-3.1 3.8 31.6 15.3 63.7 30 95.8 44.3zm252.5 121.6c23.8-44.3 56.3-81.6 93.9-114.7-42.4-30.5-80.5-61-108-88.5-18.2-18.2-35.3-34-51.6-48-48.2 48.2-93.3 99.4-137 151.8 68.8 30.6 137.4 61.8 202.7 99.4zm2049.2 2893.3c-71.8-165.4-188.9-317.5-231.5-494.5-46.8 53.3-93.7 106.4-141.8 158.3 180.2 307.5 427.6 711.2 427.6 711.2 0 0 0 0 66.2-75.7 6.4-7.3 14.5-19.9 23.8-36.1-48.7-88.2-105.5-173.5-144.3-263.2zm-187.3-538.8c19.3 103.1 68.6 196.2 118.4 287.6 45.6 83.8 87 167.9 127.7 254.1 32.7 69.3 75 136.9 114.6 205.8 30.9-61.4 68.7-144.8 105.8-230-12.9-21.9-24.9-43.8-36.2-64.6-60.5-112.1-108.3-230.3-164.6-344.4-43.6-88.4-83.8-178.7-132.8-263.4-45.5 49.3-89.9 99.8-134.3 150.4 0.6 1.4 1 2.8 1.4 4.5zm-148.3-503.6c-32.9-45.7-59.8-95-74.4-150.8-50.9 37.9-100.8 77.1-150 117.2-11.5 9.4-34.1 11.8-41.4-5.3-16.2-38.3-35.5-74.5-56.8-109.2-62.2 45.9-124.9 91-187.7 136.1 79.3 99.2 148.4 187.9 200.1 257.4 103.6-81.7 208.2-162 310.2-245.4zm128.9 147.4c-105.5 94.7-217.4 182.7-329.2 270.6 27 53 76.5 140.6 135.9 242.6 108.3-116.6 210.5-239.8 318.3-356.9-29.1-45.7-61.6-89.4-99.7-129.7-8.3-8.9-16.8-17.7-25.3-26.6zm-36.3-38.2c-20.7-22-41.2-44.5-60.4-67.7-102.5 83.6-207.5 164.1-311.4 246.1 25.2 35 44.1 63 55.2 82.4 107.6-84.6 215.1-169.6 316.6-260.8zm511.2 761.7c-1.1 3.9-2.9 7.1-5.2 9.7 3.6 7.1 7.1 14.1 10.7 21.1 9.9 19 20.3 39.3 31.3 59.7 69-160.5 129.1-309.9 129.1-309.9 0 0-14.3-26.8-37.3-67.7-52.7 91.2-98.4 186-128.6 287.1zm-103.7-200.2c22.2 48 43.9 96.3 66.4 144.1 34.2-99.5 82.2-193.2 136.1-283.8-16.2-28.1-34.4-59.4-53.6-91.5-49.7 77-100.8 153.2-148.9 231.2zm-215.9-674.2c-37.5 39.7-76.4 78.2-116.4 115.4 18.2 18.9 36.2 37.7 53.4 56.8 26.5 29.4 49.9 60.9 71.3 93.8 41.7-44 84.5-86.9 128.9-128-32.4-31.8-79.4-79.2-137.2-138zm-36.9-37.8c-17.2-17.5-35.1-35.8-53.7-54.8-39.7 35.5-80.2 70.4-121.2 104.4 18.6 22.6 38.6 44.2 58.9 65.6 39.9-37.1 78.6-75.5 116-115.2zm-206.9 8c39.4-32.9 78.3-66.4 116.5-100.6-33.1-34-68-69.9-104.4-107.5-27.3 18.5-54.2 37.5-81 56.8 0.1 0.1 0.1 0.1 0.1 0.2 11.7 56.7 36.8 105.9 68.8 151.1zm418.3 203.4c-48 43.9-94 89.9-138.8 137.1 50.1 86 89.6 178.7 134.1 267.1 6.6 13.2 13 26.5 19.4 39.8 47.5-75.4 97-149.6 145-224.7-56.2-90.7-116.6-179.5-159.7-219.3zm-927.6-509.7c-4.2 5.5-9.6 8.6-15.2 9.9-37.3 33.2-77.8 63.2-113.9 97.8-16.9 16.1-33.4 32.7-49.6 49.5 35.9 44.3 71 87.6 104.5 129.4 64.1-46.1 128.3-92.2 191.8-139.1-35.7-51.6-75.8-100.1-117.6-147.5zm-166.4 70.4c41.2-39.3 88-72.8 129.2-111.8-112-123.1-230.2-242.2-304.6-392.5-49.7 71.9-96.5 146-141.2 221.2 90.4 108.8 183 221 270.7 328.7 15-15.5 30.3-30.7 45.9-45.6zm576.9-86.8c-71.8 61.4-146.1 119.7-221.8 176.4 17.2 27.5 33.1 55.9 47.2 85.6 80.6-64.9 163-127.5 248.5-185.6-24.1-24.9-48.8-50.4-73.9-76.4zm-279.7-290.1c-67.3 50.2-132 103.7-194.9 159.4 78 85.4 158.2 169.1 223.8 263.2 73-54.8 144.8-111.1 214.3-170.3-78.6-81.4-160.8-166.7-243.2-252.3zm-36.7-38.1c-95.6-99.3-190.8-198.5-280.8-292.2-42.5 49.9-82.8 101.7-121.2 155 1.6 1.8 3.1 3.8 4.3 6.4 51 108.7 125.1 200.8 204.2 289.3 62.5-55.4 126.8-108.5 193.5-158.5zm-317.6-330.5c-33.3-34.7-65.9-68.6-97.2-101.2-51.7 65.5-97.2 136.1-140.8 207.1-45.6 74.2-88.4 149.8-130.2 226 24 28.7 48.3 57.9 72.9 87.5 88.2-147 184.5-289.8 295.3-419.4zm-253.4 31.1c37.1-58.3 75.9-116.8 119.3-171.1q-18.3-19.2-35.6-37.9c-87.1 137.7-191.4 265-300.7 387.8 21.4 25.6 43.5 51.8 65.9 78.6 48-87.1 97.6-173.4 151.1-257.4zm-390.7-248.1c-22-27-43.7-54.3-65-82-32.1 38.5-64.4 76.9-96.1 115.8 46.1 52.1 159.2 184.4 300.5 352.4 39.6-44.7 78.3-90 115.9-136.2-101.8-57.4-183-161.5-255.3-250zm-97.5-125c-46.4-62.4-90.4-126.8-130.3-193.3-49.5 57.3-96.9 116.1-140.6 177.3 72.9 55.4 132 102.7 170.2 137.5 33.2-40.8 67-81.1 100.7-121.5zm134.8 87.7c70.9 86.8 150.8 191.4 251.5 245.8 15.2-19.4 30.1-38.8 44.8-58.4-4.6-1.7-8.8-4.6-12.3-9.2-147.4-191.1-301.6-377.1-458.5-560.5q-27.2 29.6-54.1 59.6c66.8 113.6 145.4 220.9 228.6 322.7zm257 59.3c23 29.1 46.1 58.1 68.8 87.5 25.8-36.2 50.7-73 74.2-110.6-30.4-33.4-58.2-64.7-83.9-94.3-20.8 38.5-40.9 77.5-59.1 117.4zm22.4-160.4c-126.2-149.5-190.1-248.3-222.1-307.7-24.3-45-59-83.4-101.3-111.9-31.5 32.9-63.1 66.1-94.5 99.6 122 142.7 242.2 287.1 359.2 434.1 18.3-38.7 38.1-76.5 58.7-114.1zm-369.5-447.3c-55.3-32.6-122.9-74-186-117-43.9 37.3-80.4 79.6-104.3 133.7-5.7 12.9-25 16.3-36.1 9.4-29.6-18-59.9-34.4-90.7-50-61.4 86.8-124.7 172.1-179 263 86.6 62 168.2 121.3 239.3 174.5 105.5-147.6 231.6-282.4 356.8-413.6zm-465-47.2c-31.9-15.1-64.1-29.5-96.4-43.8-61 74.9-120.4 151.4-183.2 224.7 35.6 25.1 70.8 50 105.4 74.7 53.1-88.2 114.5-171.3 174.2-255.6zm-231.2-206.3c38.3-46.8 77-94.6 117.4-141.1-11.4-4.2-22.7-8.2-34-12.4-11.9-4.5-40.4-19.6-79.8-42.1-91 108.4-183.1 215.7-285.5 313.3-13.3 12.7-31.3 8.4-41.4-5.3-91.9-124.9-254.5-179.8-337.6-311.1-29.6 33-59 66.2-87.3 100.3 132 91.4 329.9 227.1 533.6 369.2 71.7-90.1 141.7-181.7 214.6-270.8zm-298.5 60.2c90.8-89 173.9-185.3 255.8-282.6-42.3-24.8-91.9-54.8-145-87.6-53.2 55.4-116.1 102.7-178.4 142.6-12.7 8.1-28.4 2-36.1-9.4-39.4-58.2-83.4-112.1-130.8-162.7-30.1 33.3-60.6 66.5-90.8 99.7 73.5 129.7 228 188.8 325.3 300zm-271.3-437.6c-89.8-89.7-190.4-169.3-295.7-243.5-110 71.3-217.7 146.4-323.6 224.2 130.3 82.5 246.2 157.9 290.5 191.9 17 13.1 54.7 39.8 107.3 76.4 70.8-85.6 147.1-166.4 221.5-249zm197.2 151.4c47.9-31.9 97-69.3 139.9-112-229.6-143.6-497.5-324.3-497.5-364.2 0-1-0.4-2.2-0.6-3.4-29.6 18-58.9 36.3-88.1 54.8 169.2 120.9 325.9 255.4 446.3 424.8zm-722.1-547.3c-107.3 76.2-212 155.9-314.3 238.7 55.6 34.6 114.6 71.4 172.1 107.7 106.2-78.5 214.3-154.4 324.6-226.5-60-41-121.1-80.7-182.4-119.9zm229.2 89.6c34.1-21.7 68.3-43.2 102.8-64.2-38.6-36.4-106.8-84.5-178-130.9-36.4 24-72.4 48.5-108.2 73.4 61.7 39.7 123.2 80 183.4 121.7zm-481.1-252l-350 223.5c0 0 105.3 64.4 240.3 148.2 102.1-83.2 206.7-163.2 313.8-239.8-68.8-43.8-137.3-87.4-204.1-131.9zm249.8 99.5c35.6-25 71.5-49.6 107.8-73.7-106.3-67.2-204.8-123.4-204.8-123.4l-104.4 66.7c66.1 43.9 133.8 87 201.4 130.4zm-1579.7 2884.2c-15.5-13.1-38.7-8.6-48.8 9-3.9 6.8-8.8 13.9-14.5 20.4-21.9 24.6-32.8 35.5-21.9 76.5 10.9 41 65.6 254.2 65.6 254.2l27.3-24.6-16.4-38.3 13.7-199.5 13.6-82zm2322.5 1498.4l10.4 119.8c76.4-14.2 144.7-24.4 215.6-31.1 54.5-5.1 140.5-17.6 196-24.6l-13-152.8c-90.2 14.9-321.8 61.9-410.5 76.6 0.2 4.3 0.8 8.2 1.5 12.1q1.6-0.2 3-0.4m2518.9-4100.2c-46.2-40.8-147.2-114.7-187.7-150.6-100.2 58.7-44.2 139.2 27.7 241.2 51-28.8 102.3-57.9 160-90.6zm-947.6-198.4c43.8 18.6 89.3 33.2 138.5 50.8 23.6-88.5 90.4-250.8 113.5-337.3-53.8-24.7-106.1-48.6-165.9-76-22.2 88.7-88.4 249.2-106.1 329.2-2.1 9.6 10 29.1 20 33.3zm701.7 337.6c0.6 1.5 1 3.1 1.2 4.7l26.1 185.1c0.8 6.3 4.4 12 9.8 15.6l130.8 88.1c7.3 5 16.8 5.2 24.4 0.6l177.7-107.2c2.8-1.7 6-2.7 9.3-3.1l94-10.4c17.5-2 26.3-22.4 15.6-36.4l-16.1-21.1c-5.5-7.2-14.7-10.4-23.4-8.3l-265.7 63.6c-9.6 2.3-19.6-1.8-24.7-10.4-28.3-47.2-116.5-196.1-108.7-198.7 9.2-3-89.5-191.3-89.5-191.3l-37.1 21.6zm263.3 119.6c57.5-11.7 113-33.2 182.2-54.1-47.7-50.2-87.3-93.7-129.4-134.6-8.9-8.7-30.6-15.1-40.1-10.3-57.4 28.9-112.9 61.4-167.7 91.9 44.4 122.5 50.1 128.3 155 107.1zm263.7 1265c-114.8-25.8-165.7-12.5-239.5-8.9-8.9 0.4-20.2 12.2-25 21.6-42.9 83.6-93.9 200.5-138.7 290.2 53.1 24.9 99.9 44.8 144.5 68.5 31.7 16.8 47.7 6.9 67.1-20.2 52.5-73.7 106.9-146.2 164.1-216.2 25.5-31.1 55.2-128.7 27.5-135zm-336.2-1013.9c-146.1 103.1-328.4 226.8-483.8 333.5 44.2 30.4 81 60.4 122.2 81.9 17.8 9.3 50.3 9.6 66.7-0.8 66.1-42.2 167.5-108.6 225.6-160.9 143.3-129.1 281.8-263.5 422-396.2 5.9-5.6 8.2-14.9 12.1-22.5q-3.8-8.4-7.6-16.7c-62.4 15.4-130.4 19.9-185.6 48.9-63 33.2-112.4 91.1-171.6 132.8zm458.5 831.3v-206.7c0-3.2-3.4-5.2-6.2-3.8-66.9 32.3-129.2 62.5-200.5 97-3.1 1.5-3.3 6-0.2 7.7 72.5 39.6 134.3 73.3 200.5 109.5 2.8 1.5 6.4-0.5 6.4-3.7zm-598.5-263.8c42.7 34.4 113.5 0.8 157.9-35.4 135.8-110.3 274.3-217.1 411-326.2 9.4-7.5 18.2-22.2 18.6-33.9 1.8-62.2-66.4-198-66.4-267.4-204.2 178.1-434.7 384.4-635.8 559.7 11.3 6.9 98.2 89.8 114.7 103.2zm601.5-87.6c-7.9-60.6-23-155.7-27.2-231.5-68.2 59.1-123.9 105.5-176.8 154.8-11 10.2-21 36.5-15.5 46.8 22.9 42.6 67.2 115.4 94 156 20-7.8 36-15.6 52.9-20.3 54-15.2 80.4-45.5 72.6-105.8zm-1128.5-1119.3c109.6 1.9 378.3-30.1 413.3-127.2-115.3-70.7-217.7-133.5-327.8-201-20.5 69.5-109.1 218.7-120.7 277.7-2.9 14.7 22.4 50.2 35.2 50.5zm-1805.6-195c0.1 79.7 0 159.4 0 240.4 135.2 0 259.8 0 385.9 0 0-134.2 0-263.5 0-401.6-78.8 0-151.1 0.8-223.5-0.1-162.6-2-162.6-2.3-162.4 161.3zm1389.4 26.5c30.8 22.3 65.4 39.4 107.1 63.4 23.7-93.9 86.2-262.7 108.7-351.6-45.9-17-88.9-32.8-137.1-50.7-20.7 75.9-82 227.6-97.6 295.9-2.9 12.7 7.6 35 18.9 43zm-1200.9-253.3c73.6 0 134.2 1.4 194.7-0.4 51-1.6 70.5 21.2 69.9 71-1.5 132-0.6 264-0.7 396 0 129.8 0 259.6 0 403 43.5-7.2 78.8-13.1 106.1-17.6 0-365.6 0-724 0-1084.7-113.4 0-215.7-0.3-318 0.2-26.2 0.1-52.7 1-52.2 39.2 0.8 62.3 0.2 124.6 0.2 193.3zm-252.9 64.3c-43.6 0-82.6-2-121.2 1.1-11.8 1-30.7 14.5-32.4 24.6-10.8 65.9-17.8 132.4-26 198.2 61.8 0 119.6 0 179.6 0 0-74.9 0-143.4 0-223.9zm186.7-286.9c-113.6 21.6-216.9 41.2-318.3 60.5-6 58.5-11.1 107.6-16 155.1 119.4 0 230.3 0 343.8 0-3.2-72.1-6.1-138.4-9.5-215.6zm1197.1 403.1c23.9-82.9 62.3-205.8 72.6-253.8 2.5-12.2-7.3-37.6-16.2-40.1-104.3-29.6-209.4-55.9-314.4-83.1-2.3 5.1-54.9 39.8-57.2 44.9 84.1 86.4 179.7 236.3 272.2 341.7 13.1 14.9 37.5 9.5 43-9.6zm-260.3-74.1c-32.9-98-99.4-195.6-132.2-286.2-5.1-14.1-22.3-29-37-33.4-25.9-7.8-81.5-15.5-108.7-19.5-31.1-4.6-44.8 11.4-44.1 39.4 2.9 113.1 10 254.9 14.2 384.5 94.5-26.8 238.9-65.2 307.8-84.8zm-315.1 949.6c82.5 63.6 173.4 116.5 261.7 172.5 20.2 12.8 44 19.8 67.7 30.1 0-147.4 0-286.4 0-424.3-98.9-8.2-192.8-13.2-286-24.9-54.1-6.8-81.6 11-85.1 64.2-4.4 65.1-16 138 41.7 182.4zm-809.8-470.2c0-79.5 0-149.3 0-222.7-61.3 0-118.9 0-185.1 0 10.2 49 5.6 106.5 32.1 134.9 36.9 39.6 97 57.5 153 87.8zm378 1477.5c-8 10.5-13.5 30.1-9.4 41.6 50.7 141.7 103.3 282.7 161.7 440.7 15.7-31.9 24.3-45.1 28.9-59.6 51-160.8 101.6-321.7 151.3-482.9 3.7-11.9 5.7-31.7-0.9-38.3-46.4-46.2-95.3-90-146.1-137-66.6 84-126.9 159.1-185.5 235.5zm-701.2 461.9c-9.9 0.3-25.2 7.2-28.3 15-34.7 86.1-85.9 229.9-121 321.3 53.1 0 94.1 1.1 135-0.7 11.9-0.6 29-6.5 34.2-15.5 48.1-82.7 112.4-223.5 166.5-320.8-73.3 0-129.9-0.7-186.4 0.7zm-300.6 39.8c-27.1 93.4-74.6 240.9-102.5 344 63.8-15.4 116.4-27.8 168.8-41.3 6.5-1.7 14.5-8.3 16.6-14.5 30-88.2 81.8-230.2 113.2-325.2-60.2 5.9-112.8 10.1-164.9 17.1-11.5 1.4-28.5 10.7-31.2 19.9zm551.8-18.5c-48.3 82-127.4 220.7-173 301.8 83 14.5 160.8 28.1 240.1 41.9 34-90.9 101.1-237.3 140.6-342.9-67.5-5.2-119.8-10.1-172.1-12.6-12-0.6-30.7 3.5-35.6 11.8zm-689.3-52.2c165.8-3.4 201.9-32.9 208.4-168.2-36.1-9.9-73.1-20-114-31.1-31.7 67-61.8 130.4-94.4 199.3zm1536.9-490.6c-35.5 99.1-69.9 186.3-97.7 275.5-28 89.6-49.4 181.2-76 280.4 29.5 7 60.6 11.7 89.8 21.8 46 16 65-1.7 80.8-45.3 41.9-116.1 89.7-230.1 134.2-345.3 4.2-11 6.9-29.2 0.9-36.4-39.9-48.4-82.3-94.7-132-150.7zm717.4-1608.6c-66.8-34.5-135.1-65.7-202.9-98-17.8-8.5-35.7-16.7-56.5-26.5-6.4 50.1-14.9 90.7-16.2 131.7-9.2 282.8-16.2 565.7-25.9 848.5-1.8 53.1 26.5 79.7 68.8 97.7 20.3 8.7 42.8 12.2 70.2 19.7 22.1-167.7 44-333 65.8-498.1 24 2.3 47.3 5.6 70.7 6.6 25.3 1.2 50.7 0.3 89.3 0.3-9.7-152.4-18.1-297.2-29.6-441.7-1.2-14.5-19-32.7-33.7-40.2zm-2534.9 2353c99-17.7 194.8-34.6 290.5-52.5 7.8-1.6 18.3-9.7 20.6-17 11.6-36.3 20.8-73.3 33.6-120.1-64.7 14-117.5 34-170.6 35.1-105.6 2.2-142.7 71.1-174.1 154.5zm1563.5-104.4c-31.9 68.4-93.6 180.3-124.8 256.5 80.2 12.5 182 28.6 252.2 36.1 12 1.3 35.2-17.5 37.9-30.3 13.7-65 57.1-172.4 68.2-242.2-56.2-12-136.1-27.9-184.4-35-15.9-2.4-44.1 4.2-49.1 14.9zm-482.3 245.2c106 0 201.3 0.7 296.6-1 10-0.1 24.9-11.7 28.9-21.5 27.9-68.8 100.1-181.3 130.6-261.6-103.1-15.2-200.3-29.6-296.6-43.9-37.1 93.6-118.7 225.1-159.5 328zm971.9 2249.5c-10.5-12.8-21.6-25.3-33.8-36.6-4.4-4.1-9.1-7.5-13.7-11.2-7.2-6-9.7-1.3-2.6-6.9-9 7.1-19.9 3.6-25.6-3.3-92.3 15.9-184.9 31.4-280.5 47.6 31.5 45.4 56.7 87.5 88.3 124.2 11.3 13 41.5 22.5 57.1 16.9 80.2-29 160.1-59.5 240.9-90.8-9.3-13.9-19.7-27.3-30.1-39.9zm4.7-45.3c20.4 21.8 41.4 46.4 57.7 72.8 40.5-15.7 81.2-31.5 122.6-47.4-43.5-58.4-94.8-77.2-160.6-58.1-14.1 4-28.3 7.2-42.8 10 8.9 7.5 16.9 16 23.1 22.7zm1125.5-691.2c11.1-5.2 26.9-18.3 26.2-26.4-1.2-13-13.5-34.6-22.7-35.5-59.6-5.5-128.8-27-177.9-5.2-165.1 73.6-323 163.1-489.6 249.7 12.4 17.4 24.1 29 29.9 43.1 23 55.1 57.7 57.2 102.9 27 22.8-15.2 46.2-30.3 71.1-41.8 153.2-70.7 306.9-140.1 460.1-210.9zm-3292-1393.3c-3.8 30.4-16.8 60.7-15.7 90.7 1.8 45.5 34.8 62.5 71.8 36.8 43.1-30 82-66.1 121.8-100.8 46.7-40.6 87.9-63.7 141.4-89.7 74.6-36.3 73.5-125.4 79.7-202-55.5 12.8-100.8 30.4-146.7 32.4-151.7 6.7-233.9 83.3-252.3 232.6zm2231 1982.7l-13.3-23.8c-4-7.3-11.9-11.6-20.2-11.1l-265.8 16.8c8.3 28.5 15.9 57.1 26.8 84.7l256.5-34.8c15.1-2 23.3-18.6 16-31.8zm-584.8 69.6c-2.7-11.3-5.2-22.7-8.4-34-1.2-4.1-3.4-8.5-4-12.7-0.2-1.2-0.5-2.1-0.7-2.7l-228.8 32.6c-11.5 1.7-22.1-6-24.3-17.4l-36.9-195.7c-2.6-13.7-17.3-21.4-30-15.8l-55.2 24.6c-8.8 3.9-14 13.2-12.6 22.7l37 265.3c1.6 11.8 12.5 20 24.3 18.5l349.6-47.4c-3.9-12.5-6.9-25.3-10-38zm24.4-40.5c6.7 24.1 10 50.3 18.6 74l235.5-31.9c-10.9-28.5-18.5-58-27.2-87.2l-20 1.3q-0.8 0.1-1.6 0.2l-209.3 29.8c1.7 5.1 3 10 4 13.8zm406.4 353.4c94.1-48.6 191.2-91.2 287.9-134.4 37-16.6 44.7-34 10-63.3-136.5 49.9-273.8 100.1-413.8 151.2 29.4 56.1 59.4 75.7 115.9 46.5zm720.7-396.9c-18.9-23.7-37.9-47.3-56.6-71.1-68.1 16.6-132.1 44.2-195.9 74.3-16 7.5-32.3 15.7-48.8 24 12.6 23.6 26.1 46.8 40.8 69.1 8.3 12.7 36.6 25.3 48.6 20.4 74.1-30.3 146.2-65.7 218.3-99.1-3.7-10.4-4.2-14.7-6.4-17.6zm-331-33c4.8 10.5 9.7 20.9 14.9 31.3 27.8-13.9 55.3-28.2 82.4-40.6 50.4-23.1 101.5-43.6 154.7-57.7-34.7-45.3-67.6-91.8-95-142-92.1 14.1-183.4 37.3-275.2 51.8-25.6 4-51.6 7-77.6 9.7 7.6 36.8 12.7 73.9 19.1 110.8 34.8-2.6 69.6-5.2 104.4-8 37.1-2.9 57.2 11.5 72.3 44.7zm-229.1-144.2c-106.5 10.2-213.6 18.7-310.4 68.2 0.6 15.7 1.7 33.2 3.5 52.7 0.3 3.4 4 6.4 7.4 11.6 12.5-1 26-1.9 39.6-2.9 93-6.6 186-12.9 279-19.7-6.2-36.6-11.4-73.5-19.1-109.9zm348.2-147.3c-3.7-9.9-32.1-17.6-47.2-15.1-145.4 23.5-289.8 54.1-435.8 73.3-126.8 16.6-169.5 35-175.1 120.2 100.2-46.2 209.1-53.8 317.6-64.9 3-1.1 6.3-1.5 9.4-0.9 28.4-3 56.7-6.2 84.9-10.5 89.6-13.9 178.5-36.1 268.2-50.6-7.9-16.7-15.4-33.8-22-51.5zm-2688.7-476.8c0 74.4 0 136.5 0 203.6 81.8-13.3 158.9-25.8 243.3-39.5 3.6-55.1 7.3-112.1 11.6-177.9-90.7 4.9-173.3 9.4-254.9 13.8zm48.8 560.6c59.4-30.8 118.6-61.9 176.8-94.8 11.7-6.6 25.7-21.8 26.1-33.5 2.6-66 1.3-132.2 1.3-206.8-89.8 13.7-165.2 24.1-239.9 38-10.5 1.9-23.9 21-25.3 33.4-8.2 72-17.3 144.3-18.2 216.6-0.8 59.2 27.9 73.6 79.2 47.1zm1720.3 725.3c-15.6-41.6-29.5-82.2-46.6-121.3-4.3-9.8-20-22.5-28.8-21.3-98.2 13-196.2 28.5-300.8 44.3 11.4 49.4 23 99.5 34.4 148.7 118.7-17.5 228.4-33.6 341.8-50.4zm-497-750.1c-25 3.1-50.9 6.6-76.5 11.1 6.3 27.1 12.9 54.3 19.2 81.4 14.1-3.6 26.6-7.4 36.2-11.3 14.7-6 45.4-0.4 41.9-14.3-1.9-7.6-17.4-53.7-20.8-66.9zm-83.9-21.2c25.4-4.4 50.8-7.9 75.5-10.9-21.2-80.7-54-203.8-68.7-258.8-4.1-15.4-20.1-24.3-35.3-19.6-5.3 1.6-11.1 3.4-17.4 5.3 21.7 46.3 20.7 99.3 24.9 152.4 3.5 44.4 11.5 88.1 21 131.6zm-130.7 77.1c4.5 29.4 8.1 53.7 10.3 68.5 29.4-7.9 74.4-15.8 114.5-24.4-6.2-27.5-12.9-54.9-19.2-82.4-38 8.5-74.4 20.4-105.6 38.3zm98.3-70.6c-6-28-11.6-56-15.7-84.2-9.2-62.7 0.7-139.5-30.2-196.8-35.5 10.2-75.3 21-101.9 25.9 6.4 44 28.2 185.7 44.1 290.3 31.4-16.2 67-27.2 103.7-35.2zm14.8 235.2c-3.4-0.5-6.4-2-8.7-4.4-14.2 5.6-28.3 11.4-42.2 17.3-13.9 6-31.3 30.1-29.3 43 18.4 115.1 40.8 229.7 61.2 339.8 24.5-2.6 48.8-5.3 73.1-7.9-24.8-128.2-31.4-259.2-54.1-387.8zm87.1 384.2c144.2-15.7 285.8-31.1 432.6-47.1-11.1-20.3-21.8-33.1-25.4-47.6-14-55.1-50.8-68.7-101.5-60.7-51.4 8-103.7 12.7-154.2 24.5-51.9 12.3-63.3-14.1-66.8-56.3-6.9-82.8-15-165.6-23.7-260-41.5 15.5-80.4 29.4-117.8 43.5 24.6 133.7 30.5 270.3 56.8 403.7zm3458.3-2832.6c5.2 49.1 12.3 99.4 15.3 149.9 2.2 36.6 19.4 53.1 54.4 54.1q0-82.9 0-165.6c-8.8-34.9-20.9-64.3-69.7-38.4zm-2506.6 3144.8c-27.7-34.9-55.5-69.6-83.3-104.5-75.5 19.3-148.6 54.1-212.7 98.3 7.2 15.4 14.5 30.8 21.7 46.2h59.1c72.3-9.5 144.7-18.9 217-28.4-1.2-8-0.8-10.4-1.8-11.6zm-106.2-133.2c-91.4-114.8-182.9-229.4-275.1-343.6-6.9-8.5-24.2-13.7-35.9-12.6-28.3 2.8-56.2 10.1-83.8 15.4 33.8 81.6 66.6 165.1 102.8 247 28.3 63.9 58.1 127.1 87.9 190.3 61.6-42.2 131.9-76.2 204.1-96.5zm171.2 101c29.3 43.3 39.9 31 155.7 7.9 1.8-0.3 3.2-2.2 12.8-9.3-6.5-17.3-12.7-34.6-18.8-51.8-49.9 17.8-99.8 35.4-149.7 53.2zm138.4-84.5c-8.2-22.3-16.7-44.5-26.3-66-55.9 20-109.8 43.8-159.1 76.4 11.7 17.7 21 32.6 28.7 45.2 52.2-18.6 104.5-37 156.7-55.6zm-40.3-94.6c-14.8-25.8-37.2-49.6-75.3-33.6-41.2 17.2-80.4 38.9-122.2 59.5 12.3 18.7 23.5 35.5 34.2 51.8 51-33.1 106.2-57.3 163.3-77.7zm1071.7-264.8q11.4 9.3 22.5 18.8c15.4-9.8 30.9-19.7 46.6-29.6-55-53.9-103.7-101.7-156-152.9q-25.8 17-52.1 34.4c33.2 51.9 92.2 91.2 139 129.3zm-173.8 48.8c27.5-21.6 65.6-47.2 83.2-79.5-21.4-18.7-42.1-38.5-60.7-60.4-5.6-6.6-10.5-13.4-14.8-20.3-36.7 24.2-74 48.8-112.2 74 30.4 34.1 58.8 67.3 87.9 99 5.6-4.3 11.1-8.5 16.6-12.8zm109.3-57.4c-18.2 30-51.3 53.5-77.5 74.5-8.4 6.8-16.9 13.3-25.4 19.9 2.8 2.9 5.5 5.9 8.3 8.8 9 9.2 33.6 15 43.5 9.3 36.4-21 72.1-43.3 108-66.1-18.8-15.6-38-30.8-56.9-46.4zm-899.3 379c3.2 8.1 6.6 16.2 9.7 24.3 12.4 32.9 26.6 42.2 60.9 31.1 59.6-19.3 120.7-34.1 190.1-53.2-21-27-41.2-53.2-60.9-78.7-66.1 27-132.8 52.1-199.8 76.5zm178.6-103.7c-12.3-15.8-24.6-31.6-36.8-47.1-59.8 19.8-121.2 36.5-181.4 55.5 9.4 21.8 18.5 43.2 27.3 64.4 64.1-23.2 127.8-47.2 190.9-72.8zm-58.1-73.9c-10.1-12.6-20.1-25.2-30.2-37.6-10.6-12.9-35-28.1-46.9-24.1-46.9 15.7-91.3 38.7-122.4 52.7 9.1 21.4 18 42.1 26.9 62.3 57.2-18.2 115.6-34.4 172.6-53.3zm-1752.7-3741.9c80.4 36.3 157.9 71.2 236.6 106.7 40-85.3 75.2-160.7 110.7-236.9-33.1-19.2-60.6-39-91.1-51.3-20-8.1-49.2-14.7-65.9-5.8-79.2 42-152.2 92.9-190.3 187.3zm166.6 3155c-4.4-23.4-9.1-48.1-13.8-73.1-49.6 23.9-104.5 34.7-156.2 53.7 17.7 108.1 36 218.7 42.6 278.6 54-49.1 103.9-94.5 150.1-136.5-3.8-21.8-10.6-58.9-18.9-102.4-4.8-5.1-6.9-13.3-3.8-20.3zm-20.3-107.2c-15.3-80.2-29.9-157.1-35.8-191.7-54 9-103.9 23.7-151.4 31.7 5.3 48.1 18.1 128.9 32.1 214.9 52-18 106.6-29.3 155.1-54.9zm150.8 748.7c-69.3 13.9-137.6 27.6-205.5 41.2-2.7 93.4 27.6 123.9 125.6 117 26.9-1.9 53.7-4.4 80.5-7.2-1.9-50.4-4.6-100.7-0.6-151zm133.5 119.7c1.1 6.7-1.4 12.2-5.5 15.8 32.8-4.2 65.8-8.5 99.2-12.4-15-56.4-28.4-106.6-42.7-160.1-21.9 4.4-43.6 8.7-65.3 13.1 11 47 6.8 95.7 14.3 143.6zm-32.2 8.9c-7.6-48.3-3.2-98.5-14.8-146-17.5 3.6-35 7.1-52.4 10.5-4.8 51.4-2.2 102.7-0.2 154.2 24.2-2.8 48.6-6 72.9-9.1-2.7-2-4.8-5.1-5.5-9.6zm-334.9-263.8c6 37.9 15.4 77 20.4 116.7 57.4-12.3 108.3-23.3 165.5-35.6-10.1-46.3-20.1-91.6-30.1-137.6-50.6 22.4-103.1 40-155.8 56.5zm54.4-63.4c-7.2-35.3-15.6-70.3-23.5-105.5-16.3 21.6-28.8 43.1-33.2 66.1-4.3 22.3-4.3 45.4-2.1 69.2 21.3-6.7 42.6-13.7 63.7-21-2.3-2-4-4.9-4.9-8.8zm32.2-8.9c0.6 2.9 0.5 5.5 0 7.8 20.8-7.8 41.6-16 61.9-25.2-12.2-55.9-24.8-113.5-38.6-176.2-16.6 23-35 43.9-52.1 63.9 9.3 43.4 20 86.3 28.8 129.7zm-209.1-196.8c-5.3-49.8-10.7-99.5-16.5-149.3-2.3-20.4-12-79.2-22.2-140.1-49.3 26.2-102.6 48.2-157.8 55.5-6.6 0.9-15.1-5.9-16.1-12.3-7.3-45.5-17.4-90.6-25.6-136-69 34.5-135.9 72.2-204.9 99.5-3.7 1.5-7.4 3.1-11.2 4.6 23.9 62.2 48.8 123.9 74.6 185.3 52.6-21.2 107.2-38.4 162-53.6 38.9-10.8 59.4 8.3 66.4 51.9 7 44.3 14.5 88.4 22.2 132.5 41.5-16.6 85.3-28.3 129.1-38zm3.6 33.4c-43.1 9.7-86.1 21.4-126.8 38.1 16.3 91.9 33.4 183.7 49.8 275.6 4.8 27.3 6.2 60.4 47.7 48.2 33.3-9.8 72.4-10.2 64.1-69.5-13.8-97.2-24.4-194.7-34.8-292.4zm-186.5-303c48.4-9 95.5-31 138.3-54.5-9.7-57.1-18.8-109.8-21.8-127.6-49 13.4-95.6 32.8-140.9 54.4 7.4 42.7 17 85 24.4 127.7zm-302.1 4.5c-112.3 49.3-228.4 118.1-338.3 176 27.1 44.4 86.1 166.9 129.7 145.1 93.7-46.8 187.4-93.9 283.2-136.1-25.7-61.3-50.7-122.9-74.6-185zm1241 828.1c-93.2 15.5-188.9 31.4-293.7 48.9 30.5 7.2 43.2 11.4 56.4 13.2 91.1 12.5 182.3 24.6 273.4 36.8-8.7-33.9-20-67.1-36.1-98.9zm135.6-20c-5.7 0.5-11.7 1-18.1 1.6-3.9 0.3-7.9 0.2-11.8 0.8-23.7 4-47.4 7.9-71.2 11.9 16.5 35.1 28 71.9 36.8 109.4 15.5 2 31 4.2 46.5 6.3h69.6c-16-43.8-34-86.8-51.8-130zm87.2 130h96.1c-44.9-122.4-51-138.9-148.5-132.7 18.1 44 36.4 87.9 52.4 132.7zm2603.8-2704.8c-9.7 100.7-18.8 195.5-28 290.4-3 30.6-16.6 64.9-7.3 91.1 22.1 62.1 55 120.4 83.5 180.3 8.9-0.5 17.9-1.1 26.9-1.7 32.8-185.7 65.5-371.3 98.8-560.1-68.4 0-123.8 0-173.9 0zm-1568-2033.6l-89.3-4.9c-12.3-0.7-23.2 7.7-25.6 19.8l-68.9 338.5c-1.8 9.3 7.7 16.6 16.1 12.4l24.7-12.4c4.2-2 7.7-5.3 10.1-9.3l68.9-114.8c7.8-13 25.5-15.9 37.1-6.2l223.3 188c10.9 9.2 27.3 7.2 35.8-4.2l45.6-61.5c7.6-10.2 6.2-24.3-3-32.9l-187.4-173.6c-9.4-8.7-10.6-23.2-2.7-33.3l14.1-18.2c9.2-11.8 5.9-28.9-6.9-36.5l-80.8-47.5c-3.4-2-7.2-3.1-11.1-3.4zm1826.4 1859.9c-8.1 56.3-21.3 111.9-32.5 167.7-39.2 196.3-78.5 392.6-117.7 588.9-2.2 11.3-8.8 25.6-4.5 33.7 33.5 63.1 69.2 125 104.2 187.3 8.3-0.2 16.5-0.5 24.9-0.7 44.6-176.1 93.7-351.3 132.4-528.6 24.2-110.8 33-225.1 48.7-337.7q0-76.9 0-153.8c-27.4-2.2-55.2-2.5-82.2-7.2-42.3-7.4-66.7 3.7-73.3 50.4zm-99.2 119.9c3.7-0.1 7.4-2 15.3-4.3 11.7-49.1 29.1-99.7 34.6-151.6 6.2-59.1 32.3-85.9 101.5-77.3-6.5-61.4-8.9-114.2-19.5-165.3-3-14.5-31.9-35.5-46.2-33.7-92.9 12.2-185.3 28.6-277 47.7-10 2-21.9 30.8-20.3 45.9 6.7 62.3 19.4 123.9 27.9 186.1 21.6 157.7 21.1 157.8 183.7 152.5zm-323.3 152.2c-41.5-25.3-79.2-57.9-114.7-91.2-22.5-21.1-38-49.8-60.3-80.1-33.8 38.5-53.9 61.3-88.1 100.3 49.8 41.7 99.2 78.3 142.6 120.9 43.2 42.3 78.7 92.3 121.3 135.3 12.8 12.9 37.9 15.3 57.9 17.9 5.3 0.7 16.2-15.1 18.6-24.8 19.5-79.5-9-136.7-77.3-178.3zm-291.2 1567.2c-105.7 93.7-205 181.7-307.2 272.2 29.4 26.2 61.5 54.7 103.8 92.4 83.4-79.4 165.1-155.7 244.5-234.3 9.4-9.3 13.7-34 8.3-46.3-13.5-30.8-33.9-58.5-49.4-84zm-355.9 218c33.8-26.9 72.3-48.4 104.2-77.2 70.2-63.4 137.5-129.9 206-195.2q-9.1-13-18.1-26c-178.5 85.3-357 170.7-553 264.5 92.8 101.3 178.1 194.4 266.2 290.5 35.2-28.5 62.9-51.1 94.3-76.6-37.5-32.3-68.8-59-99.9-86.1-35.8-31.2-37.2-63.9 0.3-93.9zm869.2-2397.3c-58.3-166.2-73.5-346.8-160.6-515.7-26.8 34.2-43.7 61.1-65.8 82.6-25 24.2-27.4 43.9-13.2 77.1 44.8 104.8 84.2 211.8 124.7 318.3 26.4 69.4 39.4 75 114.9 37.7zm-456.7 21.3c77.5 34.7 231.2 170.3 318.6 209.4-33-105.8-80.8-384.8-112-484.9-49.2 65.7-157.7 210.3-206.6 275.5zm-1012.2 2906.9c-33.3 19.4-67.6 37.2-102.1 54.5 1.8 2.7 3.6 5.6 5.4 8.3 7.9 11.7 31.1 25.8 40.4 22.1 30.5-12.3 60.8-25.2 91-38.1-11.8-15.4-23.1-31.1-34.7-46.8zm-20-27c-15.9-21.2-32.4-41.9-50.5-61-33 13.7-66.3 27-99.8 38.9 16.5 25.4 33.1 50.5 49.8 75.6 33.9-17 67.7-34.5 100.5-53.5zm124.4-133.7c-47.6 18.4-94.8 38.8-142.2 59 16.6 18.6 31.9 38.8 47 59.2 11.6-1.3 20.6 12.2 16.8 23 12.9 17.9 25.8 35.8 39.2 53.1 47-20.4 93.9-41.3 140.9-61.8-35.9-47-69.5-90.1-101.7-132.5zm-193.1-145.8c-59.4 28.4-119.4 59.4-187.4 93.5 29.7 46 58.5 90.9 87.1 135.1 62.1-21.5 123-47.8 183.8-73.7-25.9-35.7-73.2-109.9-83.5-154.9zm31.5-13.2c1.1 0.8 1.8 2.8-0.8 4.9 0.4 0.7 1 1.6 1.7 2.4 4.2 5.6 6.3 16 9.3 22.4 7.7 16.9 16.6 33.4 25.7 49.6 14.1 25.2 28.4 53.1 47.2 75.7 19.2-8.1 38.4-16 57.7-23.6-8.4-11.2-16.7-22.4-24.9-33.6-20.8-28.5-34.4-62.2-56.2-89.8-8.8-11.1-34.7-21.1-45.8-16.1-4.4 2-8.9 4.1-13.3 6.2-0.1 0.7-0.4 1.3-0.6 1.9zm-2145-2701.7c-11.6 34-21.6 68.4-30.7 97.9 128.5 0 250.3-1.1 372 0.6 34.1 0.5 46.2-13.9 57.2-44.6 37.7-105.6 79.1-209.9 120.8-314.1 62.6-156.6 126.8-312.6 191.8-472.5-70.2-40.3-139.3-80.1-211.3-121.4-14.8 28.3-27.1 48.6-36.2 70.1-64.6 154.2-129.5 308.4-192.6 463.2-39.3 96.4-46.6 102.8-148.1 80.1-115.2-25.8-229.7-54.5-347.5-82.6-23.1 51.7-46.6 104.1-73.5 164.3 88.1 25.6 168.7 51 250.4 72 50 13 63.7 40.1 47.7 87zm-970.6-1502.8c-8.5-9.6-10.5-13.4-13.6-15.3-154.3-95.8-156.4-97.4-268.7 44.3-70 88.5-132.5 182.9-199.4 276 62.8 51.6 117 96.1 179.2 147.2 104-155.4 203.8-304.7 302.5-452.2zm26.7-71.2c118.2 28.2 194.2 113.5 271.9 197.5 34.1 36.8 37 70.1 4.3 109.1-23.7 28.4-43.5 60-66.7 92.4 40.4 16.2 78.4 31.5 119.5 48 73.2-67.6 145.1-137.3 220.8-202.6 31.9-27.5 27.5-55.3 8.9-80.7-28.1-38.5-57.2-80.3-95.6-106.6-102.5-70.3-210-133.1-321.1-202.3-46.3 36.1-103.2 80.6-166.2 129.7 11.4 7.5 17.3 13.9 24.2 15.5zm83.7-193.6c-23.2-17.2-46.4-34.3-60.1-44.5-57.2 53.8-110.4 103.8-163.6 153.9 56.2 37.3 149.3-8.1 223.7-109.4zm525.1 1912.5c45.3-67.9 77-144.9 123.2-236.4-47.4 4.6-102.1-4-112.2 13.4-46.3 79.3-79.8 165.9-126.7 269.1 49.8-18.6 99.1-21.4 115.7-46.1zm357.5-2299.1c-18-76.3-36.1-152.5-55.6-235.3-59.6 26.4-109.8 48.7-168 74.4 75.3 62 141.6 116.6 208 171.2q7.8-5.2 15.6-10.3zm132.9 1853.5c13.2 2.5 38.2-6.8 42.9-17.3 38.9-87.7 74.4-177 111.6-267.3-60.5-25.7-116.1-49.5-187.7-79.9-41.8 109.5-81.9 214.4-124.2 325.3 62.4 16.1 109.4 30.3 157.4 39.2zm-352.5-82.8c51.1 11.1 96.1 20.9 134.8 29.3 43.9-120.7 83-228.1 127-348.8-120.4 88-195.6 194.5-261.8 319.5zm368.2-1689.1c30.5 7.2 48.6-8 46.2-42.3-8.2-115.8-16-231.6-24.4-353.6-46.5 15.4-85.3 28.2-121.8 40.2 15.1 114 27 219.3 45.1 323.5 2.4 13.8 34.5 27.3 54.9 32.2zm-1436.9 1933q8.6 9.3 17.1 18.7c39.9-11.8 96.3-11.1 116.5-37.7 65.1-86.1 116.9-182.3 177.1-279.9-62.7-28.8-115.5-53.1-183.2-84.2-44.6 133.9-86 258.5-127.5 383.1zm-83.5 452.5c-18.7-14.3-45.1-18.8-68.4-27.5-16.3 63.4-35.6 123.4-46.5 184.8-17.8 100.3-31.6 201.4-43.7 302.6-2 17.3 7.5 46.4 20.4 52.9 30.5 15.4 66.1 20.5 103.3 30.8 1.2-13 1.7-22.4 2.9-31.7 18.6-153.4 38.1-306.8 54.6-460.3 1.8-16.8-9.3-41.3-22.6-51.6zm-300.2 1217.9c67.6 125.6 130.2 240.1 190.7 355.7 21.8 41.5 47.1 54.6 82.8 26.8-17-133-33-258.7-48.7-382.5-68.7 0-138.3 0-224.8 0zm335.7-2531.4c-56.3-45.4-110.6-89.2-171.7-138.4-47.5 91.8-91.7 177.5-137.8 266.7 70.5 39.7 132.4 74.5 197.4 111.1 40.3-86 75.8-161.8 112.1-239.4zm1051.7 3831.2c-62.3 18.9-124.9 37.9-192.8 58.6 101 51.9 187.6 110.3 281.9 145.8-29.3-68.3-59.2-136.4-89.1-204.4zm131.1 218.2c8.9 2.6 17.9 5 27.1 7.2q6.9-10.1 13.8-20.1c-16.2-79.8-32.5-159.6-49.4-242.6-30.7 9.3-60.8 18.5-90.8 27.6 33.4 75.8 66.8 151.7 99.3 227.9zm-1178.6-3019c-95.5-19.2-191.7-34.8-288.9-52.1-8.3 67.8-15.9 129.6-23.6 192.7 97.5 11 192.5 23.4 288.1 31.7 49.9 4.3 76.5-32.4 85.4-74 10.2-47.2-8.9-87.9-61-98.3zm-491.1-257.9c35.3 8.2 71.8 11 104.3 15.3 31.1-59.4 59.2-112.9 89.7-171.3-60.2-14.5-116.4-28-177.1-42.6-13.3 59-26.6 112.1-36 166-1.8 9.9 10.3 30.5 19.1 32.6zm236.5-239.6c38.4-76.8 73.1-155.4 109-233.6-68.2-36.5-129.6-69.4-197.9-106-38.3 105.5-74.2 204.5-114 314.2 61.1 16.3 109.9 31.3 159.6 41.4 13.3 2.6 38.1-5.6 43.3-16zm-91.8 433.5c-68.2-12.1-130.6-23.3-200.9-35.8-7.3 74.9-13.7 141.9-20.8 216.2 68.6 7.3 129.8 13.8 196.5 20.9 8.6-68.5 16.3-130.1 25.2-201.3zm-78.6 469.6c-25.2 1.8-113.3 51.2-145.2 53.4l23.6 323.8c7.7-3.4 23.8-24.4 35.7-41.2 9.9-13.9 25-23.2 41.8-25.8l44.1-6.7c0 0 7.7-212.3 0-303.5zm115.7 849.6c0-117.4 0-117.4-118.6-110-3.2 0.2-6.3 3.9-24.4 15.4 21.2 66.8 44.3 138.1 66.2 209.8 12 38.9 35.3 48 76.8 29.6 0-47.2 0-96 0-144.8zm1368 1488.9c33.4-9.8 67.2-19.6 101.5-28.8-12.3-64.4-24.2-126.6-36.3-190.1-18.5 2.4-29.1 1.5-37.5 5.3-33.6 15.1-67.1 30.3-100.7 45.5 24 56.2 48.5 112.2 73 168.1zm-103.1-154.4q-143.4 65-286.7 130.1l-6.2 25.5c52.4 20.2 108 62.9 156.7 56.2 69.5-9.6 137.8-28.1 207.3-48.1-24-54.5-47.8-109-71.1-163.7zm946.1-4333c118 55.2 235 112.3 353.2 168.9 0-94.2 0-187.4 0-283.4-127.7 0-250.9 0-388.4 0 16.3 42.9-20.9 88.3 35.2 114.5zm718.4 1938.4c174.4 39.4 347.5 78.6 529.9 119.9-127.1-169.2-246.8-328.5-376.4-501-55.9 138.9-105.4 261.8-153.5 381.1zm855.2-1635.4l31.4 47.2q1.3 1.9 3.4 3c20.2 9.5 185.5 83 402.2 48.3 171.1-27.3 283.3-46.3 330-54.3 8.1-1.4 9.6-12.2 2.4-15.9l-64.3-33.2c-1.8-1-3.7-1.2-5.7-0.8-13.8 3.1-76.2 15.9-197.6 24-125.5 8.4-412.4-21.1-493.8-31.4-7.2-0.9-12.1 7.1-8 13.1zm-519.4-776.1c-115.1 32.6-217.5 61.5-321.9 91.2 3.3 57.9 7.2 126.6 11.6 202.1 105.2 0 206.2 0 316 0-10.5-101.1 59.8-205.6-5.7-293.3zm-39.7 595.8c13.8-2.2 34.5-21.6 35.2-34 3.6-62.5 1.7-125.3 1.7-192.6-30.4-4.4-53.6-9.1-77.1-10.8-24.6-1.7-49.5-0.3-76.8-0.3 0 54.5-4.4 103.7 0.9 151.9 9.9 89.2 26.2 100.4 116.1 85.8zm-842.2 1241.7c35.9 19.7 59.7 21.7 84.4-12.4 48.8-67.2 102.2-131 155.2-198-37.8-25-66.2-43.8-98.8-65.3-47.4 92.8-93.6 183.3-140.8 275.7zm-136.1-30.2c80.5 38.5 93.2 29.5 128-86.2-23.8-10-47.8-20.2-76.8-32.5-18.2 42.2-34.7 80.5-51.2 118.7zm-196.8 480.1c179.9 23.7 346.2 45.6 512.5 67.5 1.4-9.5 3.3-13.7 2.3-16.9-45.3-135.4-90.3-270.9-137.4-405.6-4-11.3-21.7-22-34.9-25-55.1-12.7-110.8-22.4-172.4-34.3-55.3 134.5-110.9 269.9-170.1 414.3zm365.9-641.9c24.3-34.6 38.9-76 60.3-119.6-30.6-14.4-57.2-27.1-87-41.2-23.7 51-44.2 95.3-68.4 147.7 36.4 10.7 61.7 60.6 95.1 13.1zm526.6-1261.8c-14.1 60.3-10.9 124.7-14.4 189.8 44.5 2.6 84.4 4.9 126.4 7.4-5.6-75.9-10.9-145.7-17.7-238.1-37.9 15.4-90 22.5-94.3 40.9zm-90.8 3983.6c-26.4 0.4-52.6 3.3-76.6 14.1-3.8 1.7-7.6 1.9-11 1.2-3.3 51-2.6 101.4 9.5 150.8 79-9.9 79-20.5 76.8-120.5-0.4-14.8 0.2-30.2 1.3-45.6zm-84.9-18.1c28.3-11 57.9-14.2 87.9-14.9 9.2-85.8 27.2-170.9-4.7-210.6-13.4-16.8-38.8-23-70.2-24 9.4 82.2-5.2 166.3-13 249.5zm-20.1-248.9c-41.1 2.2-88 9.3-132.5 12.8 14.1 84.5 18.9 258.4 19.1 326.3 0.3 109.1 0.5 109.8 106.6 98-32.7-143.1 26.4-292.3 6.8-437.1zm-1842.5-724.6c33.5 0 60.2 0 85.5 0 24.3-104.3 48-205.9 73-313.1-24.6 8.9-43.5 17-63.1 22.6-67.8 19-90.6 55-85 122 3.1 38.5-3.6 77.9-6.1 116.9-1.1 16.3-2.7 32.6-4.3 51.6zm2293.5 186.2c5.5 61.8 10.3 116 16.1 181.3 277.3-38.2 541 12.8 804.2 72.9-254.9-138.4-528.5-211.5-820.3-254.2zm38.5 341.4c106 0 205.8 0 309.4 0 5.6-33.3 10.6-62.8 16.8-99.2-115.3 0-222.5 0-341.2 0 6.1 40.4 10.6 70.3 15 99.2zm784.3-3170.6c64.9 15.4 113.5 25.2 176 30.8 62.5 5.6 130.5-8.5 185.1-9.2 63.8-0.8 95.7-15.4 68.5-81.5-4.4-10.9-1.2-23.7-0.1-35.5 2.9-32.9-11.7-45.4-44.4-46.4-60.9-1.8-121.7-6.7-182.5-10.7-60-3.8-120-8.2-186.7-12.8 0 65.8-15.9 90.5-15.9 165.3zm-139.4-433.8c0 146.1 0 291.5 0 439.3 30.4 0 60.6 0 96.5 0 0-145.3 0-286.9 0-428.2-30.5-3.5-58.9-6.8-96.5-11.1zm317.6 824.1c137.2-93.9 268.1-183.6 398.9-273.3-1.8-2.5-3.6-5-5.4-7.6-128.5 30.2-257 60.5-393.5 92.6 0 55.2 0 116.8 0 188.3zm-302.5 175.1c-3.2 10.2 1.9 29.6 9.9 35.6 131 96 324 238.3 463.3 320.4 105 61.9 116.3 59.9 51.6 156.4 54.7 31.5 503.1 47.5 573 23.3-327.8-195.9-726.5-432.6-1061.3-632.8-9.5 24.4-25 60.1-36.5 97.1zm514.2-869.3c-26.9-87-70.8-139.7-177.3-113-58 14.6-122.5 2.6-189.9 2.6 0 54.6-3.2 163.6-3.2 228.3 127.5 7.4 252 14.6 387.9 22.4-8.4-38.4-9.3-113.9-17.5-140.3zm431.2 912.9c-58.9 38.5-141.1 99.4-195 134.7 137.7 89.3 207.9 113.8 292.2 41.9-28.6-41.2-66.3-132.1-97.2-176.6zm-271.6 2999.8c-177 93-375 136.4-553.6 226.8-0.1 0.1-0.1 0.1-0.1 0.1 12.1 25.3 25.5 49.5 42.4 70.1 71.4-38.1 142.6-75.9 214.3-112.6 134.3-68.7 270.4-134.1 413.6-204.9-7.1-9.7-14.4-19.7-21.8-29.9-31.6 16.9-63.2 33.7-94.8 50.4zm23.4-50.2c17.2-9.1 34.3-18.3 51.4-27.5-12.6-17.2-25.2-34.6-37.5-51.4-87.5 31.1-167.1 54.3-242.4 87.3-130.7 57.4-260.2 117-389.9 176.4 9.4 19.9 18.1 41 27.3 62.1 191.6-96.6 401.7-146.1 591.1-246.9zm-648.6 198.6c-33.8 15.5-67.5 30.9-101.3 46.3 36.4 52.7 68.7 108.3 105.1 161.1 26.7-14.3 53.3-28.5 79.9-42.8-36.7-47.5-57.7-110.5-83.7-164.6zm-131.9 60.2c-2 0.9-4 1.9-6.1 2.8-33.4 15.1-31.3 35.8-14.7 61.1 29.5 45.2 59.4 90.2 81.3 123.4 15.2-8.1 30.4-16.2 45.6-24.4-36.6-53.4-69-109.8-106.1-162.9zm297.1 258.5c-7.5-21.9-21.8-101.9-48.7-108.5-50.1 37.2-99.9 74.3-155.1 115.3 25.4 20.4 41.3 35.3 59.3 46.9 14.1 9 36.5 23.9 45.8 18.8 34.9-19 68.9-39.6 103-60.7-1.5-3.9-2.9-7.8-4.3-11.8zm34.8-7.2c13.6-8.5 27.3-17.1 41.1-25.6-24.7-39.9-44.1-71.5-71.2-115.4-7.3 5.4-14.5 10.7-21.7 16.1 0.1 1.1 0 2.2-0.2 3.3 27.5 24.3 39.7 78.2 52 121.6zm-2523.3-823.3c-13.9 89.2-25.1 178.8-37.9 274.1 62.5-13.1 112.1-21.1 160.2-35 14.5-4.2 33.2-23.1 35.2-37.3 11.4-82.5 18.3-165.6 27.3-252.6-48.9 7.9-102.8 15.5-156.1 26.2-11.2 2.2-27.2 14.9-28.7 24.6zm265.9-190.9c-334.8 0-669.6 0-1002.4 0 0 45.9 0 83.9 0 123.3 67.9-3.2 130.7-8.6 193.5-8.5 244.5 0.1 487.2-19 727.7-63 30.3-5.5 58.7-21.4 88-32.5-2.3-6.5-4.5-12.8-6.8-19.3zm3260.1-935.7c0-64.6 1.2-129.2-0.3-193.8-1.2-51.2-43.6-65.2-81.4-79.6-13.6-5.1-37.7-6-45.7 2.2-32.4 32.9-60.3 70.1-95.1 112 71.8 60.1 138.4 115.9 205 171.8 5.8-4.2 11.7-8.4 17.5-12.6zm122.2-870.9c21.6 92.4 45.2 184.5 67.4 273 97.3-39 187.6-75.1 284.9-114-22.9-115-46-231.2-68.8-345.5-94.2 55.2-182 106.2-268.9 158.6-8 4.7-16.5 19.9-14.6 27.9zm-78-286.6c-2.1 17.6-8.4 37.4-2.9 52.5 18.2 49.7 41.1 97.6 68.6 161.2 78.5-53.1 153.2-105.8 230.2-154.8 34.2-21.8 44-44.3 28.2-82.4-66.3-159.7-130.8-320.2-196.6-480.2-5.2-12.6-14.9-23.5-22.6-35.2q-9.8 0-19.6 0.1c-23.9 142.7-48.1 285.4-71.5 428.2-5.9 36.6-9.7 73.6-13.8 110.6zm-4241.8-583.1c-20.9-8.5-49.6-16.8-74.7-31.3-42.8-24.9-71.1-15-96 26.3-58.7 97.2-123.4 191-178 290.4-36.3 66-59.2 139.4-89.6 213.2 56.8 25.5 106.4 47.9 149.6 67.4 96.6-189.4 191-374.5 288.7-566zm4139.9-190.7l73.2 174.3c0.7 1.6 0.3 3.4-1 4.5l-49.3 46.1c-1.1 1-1.5 2.5-1.2 4l24.2 100c0.1 0.3 0.1 0.6 0.1 0.9l3.5 247.5q0 0.2 0 0.3l11.7 128c0.4 4.7 7.1 5 8 0.4l104-516.9c0.3-1 0.1-2.1-0.5-2.9l-189-301.8c-2.4-3.9-8.4-1.5-7.5 3l23.6 111.9c0 0.2 0.1 0.5 0.2 0.7zm-306.6 1569c-45.1 48.1-85.5 100.7-125.9 149.4 38.9 39.5 75.7 76.9 118.6 120.5 67.1-75.1 131.2-146.7 199.5-223.1-52.8-24.4-92.4-46.7-134.7-60.6-16.4-5.4-45.8 1.5-57.5 13.8zm-4717.9 1137.1c48.7-5.2 92.3-9.8 135-14.3 0-70.9 0-134.8 0-201.1-44.9-4.7-87.1-9.1-135-14.1 0 75.2 0 149.7 0 229.5zm-318.7-1187c0 56.1 3.4 152.2 3.4 207.3 73.1-11.3 142.5-57 139.4-101.1-2.4-34.6 6.7-69.2 10.5-105.8-34.7 0-120.9-0.4-153.3-0.4zm1020.6-829.8c-29.2 60-59.7 124.2-90.9 190.7 29.1 10.4 57.6 22 85.7 34.7 28.2-59.6 58.9-117.9 91.5-175.3-29.6-15.3-58.5-31.8-86.3-50.1zm593.2 2378.1c-35.3 0-64.3-0.4-93.4 0.1-90.7 1.5-97.2 4.8-99.8 96-3.3 113.7-0.8 227.6-0.8 345.5 103.7-28.5 164-48.3 148.9-166-1.9-15 3.5-31 6.1-46.5 12.6-74.7 25.4-149.4 39-229.1zm-1033.6-2689.2c-115.6 240.1-224.2 465.5-334.5 694.6 49.2 3.9 95.2 7.6 143.4 11.4 74.5-208.1 126.7-428.1 269.5-617-24.7-28-48.4-54.9-78.4-89zm-381.5 1157c-7.5 145.1-16.1 291.7-22.3 438.4-4.9 114.6-3.3 115.2 113 107.4 30.9-182 61-359.7 92.6-545.8-61 0-116 0-183.3 0zm1589.9 1785.1c8.6-89.2 14.5-178.7 21.5-271.4-34.8 2.2-68.5 1-100.5 7.6-15.3 3.2-36.9 19.4-39.6 32.9-21 103.8-38.1 208.5-59.8 332.3 62-26.1 108.8-44.1 153.7-65.9 11.6-5.6 23.4-22.7 24.7-35.5zm-1498-1239.5c-0.2 0.1-0.4 0.1-0.5 0.1-0.3 0-0.5 0.1-0.7 0.1-0.1 0.2-0.1 0.3-0.1 0.5 0.6-0.4 0.9-0.5 1.3-0.7zm0 0c1.2-0.3 1.8-0.9 0 0zm178.4 119.3c1.3-22.9-15.6-42.7-38.3-45.3-72.8-8.2-145.1-16.4-221.7-25.1-23.2-2.6-44.2 13.5-47.6 36.6-7.4 49.5-18.2 110.5-25.3 156-3.6 23 11.6 44.7 34.3 49.1 80.5 15.9 156.6 31 233.7 46.2 25.8 5.1 50-13.8 51.5-40.1 3.2-57 10.4-124.9 13.4-177.4zm1695.3 997.9c-0.8 15.2-1 30.5-0.3 46.5 79.8-26.4 158-51.7 235.2-78.7-7.1-27.3-12.8-55-18.2-82.8-78.3 24.9-144 78.6-216.7 115zm210.3-147.9c-11.4-60.3-23-120.6-44.9-177.8-86.4 82-146.3 171.9-162.1 287.1 68.6-36.5 132.1-86.3 207-109.3zm56 104.7c4.2-1.5 8.5-3 12.7-4.4 11-4.1 22.8-27.6 21.4-40.7-10.9-101.6-24.9-203-39.7-317.9-24.3 18.7-47.4 37.5-69.2 56.7 39.5 97.9 48.2 204.5 74.8 306.3zm-276.9-359.6c59.3 7.5 92.6-13 126.3-60.5-91.3-62.6-181.6-124.4-280.5-192.2-36.7 86.6-69.2 163.4-105.9 250.1 95.7 0 179-7.8 260.1 2.6zm1811.2-3449c0 151 0 299.4 0 449.4 43.2 3.1 74.1 5.4 113.8 8.3 0-121 0-240.4 0-359.9 0-89.2-33.5-114.8-113.8-97.8zm-1325 4044.7c7.6 28.2 15.3 56.3 22.6 84.6 53.2-10.9 101.4-20.3 123.5-23 32.2-4.1 42.2-18.3 43.3-49.6 0.6-18.2 1.5-38.2 1.6-58.4-62.4 21-130.6 19.1-191 46.4zm190.4-81.5c-3.2-67.5-19.7-127.6-82.4-123.5-9.8 0.6-19.7 1.4-29.4 2.1 0-0.1 0-0.2 0-0.3-14.3 0.8-63.6 16.2-119.8 34.7 9.3 45.7 20.6 90.9 32.6 136 63.8-26.3 134.5-24.7 199-49zm-263.4-76.4c-75.2 25-152.9 51.7-171 55-54.6 9.8-4.8 79.2 3.5 144.3 7.4 58.9 25.4 91.6 63.4 84.5 27.7-5.2 97.9-20.2 166.9-34.5-21.6-83-45.7-165.3-62.8-249.3zm-779.8-1322.7c-65.7 28.2-218.4 105.8-297.1 131.5 90.4 66.8 219.4 143.8 297.1 200 8.1 5.8 42-24.4 48.7-28.6 70.5-44.6 118.6-96.9 192.8-145.8-30.5-28-51.5-62.2-67.1-85.7-53.5-79.9-91-107.2-174.4-71.4zm1052.4 1884.9c-52.3-8.1-62.6-51.3-64.8-96.8-14.7 1.4-29.4 2.9-44 4.4 14.3 64.4 7.2 136.3 38.9 194.8 23.9-5 47.9-9.5 72-12.3 64.5-7.3 129.7-10.1 193.8-20 17.6-2.7 43.5-22.3 46.2-37.6 3.9-21.5 6.1-43.3 7.8-65.6-79.3 21.3-170.4 45.3-249.9 33.1zm-7-35.7c16.1 7.7 40.4 3 57.6 2 69-4 135.2-18 201.7-34.8 1.1-19.9 2.2-40.2 3.7-61.1-97.2 9.9-192.9 19.7-287.8 29.4 0.3 24.1 1.7 53.4 24.8 64.5zm-135.2-53.3c-29.9 3.1-59.8 6.2-89.6 9.2 0 33.2-1.1 58.9 0.2 84.4 4.1 79.2 52.7 118 127.8 104.8-28.9-61.3-22.3-133.1-38.4-198.4zm-851.4-944.8c31.7-76.1 62.2-152.7 90.4-230.2 4.7-12.9 1.8-36.8-7.2-45-65.1-59.6-132.7-116.6-210.2-183.6-49.1 168-96 328.7-146.4 501.6 87.3-4.7 165.1-7.8 242.6-14.4 11.2-0.9 25.8-16.3 30.8-28.4zm-709.9 37.2c120.6 0 234.3 0.5 348-1 10.6-0.1 27.6-10.9 30.5-20.2 25.6-81.8 48.6-164.4 73.1-249.3-156.9 0-302.9 0-451.6 0 0 90.2 0 177.9 0 270.5zm162.1-326.2c108.9-6.1 198.7-10.1 288.2-17.3 11-0.9 25.2-17.3 29.8-29.6 17.6-45.8 33.8-92.5 45.9-140 3.1-12.1-6.8-34.3-17.7-42.2-71.8-51.5-145.5-100.3-236.7-162.3-37.9 135.4-71.7 256.5-109.5 391.4zm3638.1-985c-147.1-74.3-286.7-144.8-426.3-215.4q-7.6 8.6-15.1 17.1c102.9 116.6 205.7 233.2 314.7 356.6 46.7-58.4 85.1-106.3 126.7-158.3zm-2606.6 411.9c-32.3-2.6-65.3 5.8-98.1 6.3-85.3 1-170.6 0.3-256 0.3-2 5.2-4.1 10.5-6.1 15.7 42.4 33.4 86.2 65.3 126.9 100.7 41.5 36.1 79.2 76.5 120.1 113.3 40.7 36.6 80.9 95.2 125.9 99.9 51.8 5.3 108.7-37.8 163.3-60.2 3.3-1.3 5.8-4.8 10.2-8.8-47.1-82.1-90.9-161.2-138.1-238.2-8.9-14.5-31.1-27.6-48.1-29zm1864.5-991.9c-4.7 3.1 59.8 85.3 71.7 91.8 82.3 45.2 428.4 217.9 516.4 262 11.8-22.8 20.5-39.4 26.8-51.7-77-54.9-287.3-223-354.6-273.6-40.5-30.4-236.2-44.8-260.3-28.5zm73.1-906.6c-40.2-3.1-80.9-8.3-119.4-19.4-34.4-9.9-66.1-29.1-99-44.2-4.4 7.6-8.8 15.3-13.3 22.9 114.2 91.2 228.5 182.5 342.7 273.7 5-3.9 10.1-7.8 15.1-11.6 0-71.9 0-143.9 0-220.7-44.1 0-85.3 2.5-126.1-0.7zm670 987c-146.3-34.4-340.4-66.8-411.8-58.1-0.5 6.9-0.9 13.9-1.3 20.8 50.6 31.3 260.7 161.3 316.3 195.6 24.6-49.1 68.4-101.4 96.8-158.3zm-1891.4 1851.7c8.1 78 16.1 154.6 23.9 230.4 68.6 5.6 124.2 10.1 182.7 14.9-15.1-82.5-29.7-163-44.4-242.4-54.3 9-108.3 8.3-162.2-2.9zm156.2-29.9c-11.5-61.9-23-123.3-34.8-184.5-3.1-16-16.9-40.7-28.3-42.3-39-5.2-79.2-2-120-2 7.9 76.5 15.6 150.8 23.2 223.9 53.4 12.6 106.1 13.8 159.9 4.9zm69 719c-1.5-17.2-1.2-37.7-10.9-52.6-0.7-1.2-1.3-2.4-1.7-3.5-36.2 2.1-70.2-1.6-94.3-20.2-2.2 52.3-3.8 100.9-3.8 134 41.2-6.1 79-11.7 115.4-17.1-2.3-13.4-3.5-27.1-4.7-40.6zm37.8 35.7c28.1-4.1 55.8-8.2 84.1-12.4-5.4-24.5-9.7-58.7-13.5-96.7-25.4 3.3-55.2 9.4-85.2 13.6 13 28.5 9.8 64.3 14.6 95.5zm67.6-141.5c-7.7-86.1-14.1-184-26-238.2-51.1 0-96.5-2.1-141.3 1.3-12.7 0.9-34.1 17.6-34.4 27.7-1.4 41.7-5 112.1-8.2 183.4 21.6 72.3 139.5 37.4 209.9 25.8zm370.8 66.2c-25.9-57.1-58.9-220.6-84-271.4-4.9-10-19.8-21.1-30.3-21.3-78.2-1.8-156.5-1-240.7-1 13.9 80 37.8 268.2 52.9 355 104.3-21.1 202-41 302.1-61.3zm20.5-443.3c-87.4-5.8-175.3-2.9-271-2.9 7.1 31.2 12 53.1 17 75.1 96.6 0 189.5 0 305.9 0-23.3-33.7-36.4-71.2-51.9-72.2zm955 100.5c-22.9-18-43.3-42.6-69.2-53-216.4-86.8-442.9-136.9-671.1-180.4-34.1-6.5-68.6-10.7-110.8-17.2-6.8 76.2-13 145.9-20.3 227.6 84.4 8.1 159.2 18.9 234.3 21.8 184.2 7 368.6 11.1 553 14.6 28 0.5 56.1-8.7 84.1-13.4zm-909.6 299.6c130.3-67.6 254.3-131.8 378.3-196.1-131.7-22.5-260-34.5-388.7-42.5-38.6-2.4-50.6 26.1-41.2 60.8 15.3 56.7 32.7 112.9 51.6 177.8zm-287.9-914.3c167.8 41.2 335.4 83.6 501.4 131.2 76.3 21.9 148.9 56.8 225.5 86.7 0-7.2 1.8-13.7-0.3-18.2-52.1-110.2-103.9-220.5-158.1-329.7-5.4-10.8-24.6-19.3-38.3-20.8-203.1-21.6-406.3-41.7-620-63.3 10.1 48.6 27.4 97.6 28.5 147 1.1 47.2 21.6 57.3 61.3 67.1zm1100.9-1683.5c7-11.4 2.9-26.4-8.2-33.5-102.2-65.7-201.5-129.6-303.8-195.4-11.2-7.2-26.1-4.4-33.9 6.3-44.7 61.7-88.9 122.7-135.4 186.9-11.4 15.7-1.4 37.8 17.9 39.6 124.5 11.5 245.3 22.1 365.8 35.2 47.3 5.1 79.1-8.7 97.6-39.1zm-746.6-750.7c-11.1 12.6-27.5 23.9-33.2 39.2-12.8 34.1-39.7 81.9-26.7 103.5 55.4 91.9 123.2 176.1 194.4 274.1 33.2-68.4 63.4-127 89.1-187.6 4.3-10.1-7.2-32.6-17.8-42.6-67.2-62.9-136.2-123.8-205.8-186.6zm-171 1908.6c49.9 26.2 126.3 51.1 179.5 68.7 53.8 17.7 142.4 25.2 198.1 36.9 3.1-4.3-2.8-18.2-7.4-30.6-8.6-23.7-19.7-46.3-33.6-67.4-47.5-72.3-97.3-143.6-134.3-220.9-37.8-78.8-101.5-85.1-176.8-100.2-8.9 83.8-48.8 193.6-54.1 273.4-0.9 13 15.2 33.1 28.6 40.1zm47.1-1506.5c45.4 50.1 89.4 101.6 138.5 157.4 26.2-30.2 53.5-58 75.6-89.4 7.1-10.2 6-34-1.3-44.9-60.4-89.7-123.3-177.8-185.4-266.5-82.6 49.6-95.7 168.1-27.4 243.4zm603.3 2305.9c96.2 47.8 192.7 94.8 292.3 143.4 2.2-13.4 4.4-19.2 3.6-24.5-0.8-5.4-4.1-10.6-7.2-15.5-74.1-117.7-152.1-233.1-221.4-353.7-58-101.2-127.1-144.2-255-135.5 56.2 122.8 111.6 244 167.7 364.9 3.8 8.4 11.8 16.8 20 20.9zm-949.3-338c-26.3-130.5-53-260.8-79.5-391.2-16.3-79.8-25.9-86.6-120.8-78.8 75.9 143.1 104.6 296.7 121.3 453.3 4.9 46.1 35.8 49.5 79.3 49.5 0-14.1 1.5-23.8-0.3-32.8zm745.4-241.4c-156.2-48.7-312.5-97.3-470.2-140.9-95.5-26.4-193.8-43.3-301.6-66.8 18.4 80.4 34 148.5 51.2 223.5 289.3 35.2 577 70 859.9 104.4-32.5-71.1-54.9-93.9-139.3-120.2zm-705.2-318.9c-2.8 14.1 12.5 42.7 25.4 47 51.5 17 105.3 27.2 164.7 41.4 8.1-95.3 32.3-228.6 40-319.2-52.6-11.7-103.3-23.1-160.3-35.8-19 76.5-55.6 194.1-69.8 266.6zm-87.9 967.8c8.4 74.8 8.4 152.1 19.5 227 21.1 1.7 42.7 2.7 64.6 4.4-16.7-146.3-31.4-289-50.7-431.1-2.8-20.5-23.3-47.6-42.1-54.9-8.3-3.2-16.8-5.8-25.5-8 8.8 87.8 24.2 174.8 34.2 262.6zm-31.3 21.4c-10.6-97.2-27.9-193.7-37.1-291.1-21.4-3.6-44.4-6.7-69.5-11.4 28.6 165.6 55 322 83.9 478 1.9 10.6 21.2 23.2 34 25.3 1.8 0.4 3.6 0.6 5.4 0.8-8.7-66.7-9.6-134.9-16.7-201.6zm803.4-2453.4c-64.1 86-126.1 169.1-188.2 252.5 57.7 78.9 111 136.8 168.9 58.2 45.3-61.6 89.2-124.2 138-192.3-26.2-22.1-96-99.4-118.7-118.4zm-1523.9 2078.1c45.7-14.5 89.9-33.7 152.1-57.9-58.9-80.7-110.2-153.9-165.3-224.1-10.3-13.1-39.6-24.5-53.7-19.2-58.4 21.8-114.4 50.3-189.3 84.6 76.5 73 144.7 139.2 214.5 203.6 10 9.2 30.1 16.7 41.7 13zm-757.8-255.7c47.6 41.7 91.1 81 136.1 118.3 9.1 7.6 26.9 14.7 36 10.9 78.6-33.3 156.1-69.2 247.2-110.1-70.1-66.3-130.3-123-188.9-178.3-78.3 54.1-151.9 104.9-230.4 159.2zm664.7 539.1c4.1 23.6 8.9 48.4 13.8 76.2 117.9-33.3 228-61.1 335.9-95.9 124.5-40 115.4-9.1 99.5-128.4-157.4 17.1-310.4 73.1-449.2 148.1zm-5.4-35c139.8-74.1 292.7-128.4 450.1-146-5.5-32.2-20.2-45.9-57.9-45.3-144.5 2.3-264.8 65.8-379.5 144.2-8.9 6.1-15.5 23.7-14.2 35 0.4 4 0.9 8 1.5 12.1zm121.3 147c-90.6 32.8-88.1 58.6-73.5 206.5 30.5-10.3 60.9-19.6 91.3-27.7-7.9-59.4-9.9-119.4-17.8-178.8zm193.1 124.9c-1.9-58.6 1.7-119.1-9-176.9-0.3-1.6-0.4-3.2-0.3-4.7-38.7 11.2-77.2 22.5-115.4 34.4-13.3 4.1-25.3 7.9-36.4 11.5 8.1 60.2 10.1 121.3 18.1 181.4 47.6-11.2 95.2-19 143.3-22 0-8.4 0-16.5-0.3-23.7zm23.2-185.8c8.7 47.2 8.3 95.6 9.3 143.4 0.3 17.3-1.6 41.2-1.4 65.1 52.1-0.9 104.9 4.4 158.7 17.7-12.9-97-23.9-180-35.7-268.7-44.9 13-88.9 25.4-132.5 37.9 0.6 1.3 1.2 2.8 1.6 4.6zm-393.8-956c-3.8 6.2-7.6 12.5-11.4 18.8 44.7 70.8 81.1 149 135.9 210.9 79.8 90 166.6 172.3 203.8 291.6 4.4 14.5 21.1 35.6 32.2 35.7 63.9 0.2 127.9-4.9 196.4-8.4-13.5-68.5-20.9-131.5-38.7-191.2-31.4-105.3-69.1-208.6-104.4-313.6-140.1-14.8-277-29.3-413.8-43.8zm641.7-34.1c92.8 24 193.7 55.1 289.3 79.9 7.1-44.1 38.8-141.5 46.1-186.8-91.5-20-190.6-47-280.2-66.6-11.1 42.9-45.4 135.6-55.2 173.5zm96.3 551.7c9.2 40.9 29.4 62.4 74.9 51 1.2-6 3.5-11.6 3.1-17-10.1-159-62.2-306.9-124.2-451.5-6.1-14-33.8-18.7-55-29.5 35.7 157.1 68.9 302 101.2 447zm-238.3-459.5c37.2 155.6 72.5 309.7 112.8 462.5 4.9 18.7 36.9 30.3 56.3 45.2 7-6.7 14-13.4 21-20.2-39.3-145.1-80.1-290-117-435.8-12.6-50.1-44-52.7-73.1-51.7zm450.6-352.8c-55.3-12.1-123.8-26.3-179.8-35.1-41.3-6.6-64.9 6.7-58.7 61 88.4 19.9 187.5 47.4 273.7 66.7 31.6-72.4 30.6-78.3-35.2-92.6zm-1156.5 970.7c-59.9-40.1-118.8-82-187.3-129.5 82.8-38.4 154.7-72.8 227.9-104 8.8-3.8 28.6 7.1 37.5 16.6 64.4 68.1 127.3 137.5 192.7 208.7-42.8 28.9-88.2 82.1-137.5 86.1-42 3.5-89.4-48.6-133.3-77.9z"/>
</svg>